<svg width="19" height="14" viewBox="0 0 19 14" fill="none" xmlns="http://www.w3.org/2000/svg">
<path d="M4.58333 10C5.23611 10 5.87153 10.0729 6.48958 10.2188C7.10764 10.3646 7.72222 10.5833 8.33333 10.875V2.66667C7.76389 2.33333 7.15972 2.08333 6.52083 1.91667C5.88194 1.75 5.23611 1.66667 4.58333 1.66667C4.08333 1.66667 3.58681 1.71528 3.09375 1.8125C2.60069 1.90972 2.125 2.05556 1.66667 2.25V10.5C2.15278 10.3333 2.63542 10.2083 3.11458 10.125C3.59375 10.0417 4.08333 10 4.58333 10ZM10 10.875C10.6111 10.5833 11.2257 10.3646 11.8438 10.2188C12.4618 10.0729 13.0972 10 13.75 10C14.25 10 14.7396 10.0417 15.2188 10.125C15.6979 10.2083 16.1806 10.3333 16.6667 10.5V2.25C16.2083 2.05556 15.7326 1.90972 15.2396 1.8125C14.7465 1.71528 14.25 1.66667 13.75 1.66667C13.0972 1.66667 12.4514 1.75 11.8125 1.91667C11.1736 2.08333 10.5694 2.33333 10 2.66667V10.875ZM9.16667 13.3333C8.5 12.8056 7.77778 12.3958 7 12.1042C6.22222 11.8125 5.41667 11.6667 4.58333 11.6667C4 11.6667 3.42708 11.7431 2.86458 11.8958C2.30208 12.0486 1.76389 12.2639 1.25 12.5417C0.958333 12.6944 0.677083 12.6875 0.40625 12.5208C0.135417 12.3542 0 12.1111 0 11.7917V1.75C0 1.59722 0.0381944 1.45139 0.114583 1.3125C0.190972 1.17361 0.305556 1.06944 0.458333 1C1.09722 0.666667 1.76389 0.416667 2.45833 0.25C3.15278 0.0833333 3.86111 0 4.58333 0C5.38889 0 6.17708 0.104167 6.94792 0.3125C7.71875 0.520833 8.45833 0.833333 9.16667 1.25C9.875 0.833333 10.6146 0.520833 11.3854 0.3125C12.1562 0.104167 12.9444 0 13.75 0C14.4722 0 15.1806 0.0833333 15.875 0.25C16.5694 0.416667 17.2361 0.666667 17.875 1C18.0278 1.06944 18.1424 1.17361 18.2188 1.3125C18.2951 1.45139 18.3333 1.59722 18.3333 1.75V11.7917C18.3333 12.1111 18.1979 12.3542 17.9271 12.5208C17.6562 12.6875 17.375 12.6944 17.0833 12.5417C16.5694 12.2639 16.0312 12.0486 15.4688 11.8958C14.9062 11.7431 14.3333 11.6667 13.75 11.6667C12.9167 11.6667 12.1111 11.8125 11.3333 12.1042C10.5556 12.3958 9.83333 12.8056 9.16667 13.3333Z" fill="#ADAAAA"/>
</svg>
